<?xml version="1.0" standalone="no"?><!DOCTYPE svg PUBLIC "-//W3C//DTD SVG 1.1//EN" "http://www.w3.org/Graphics/SVG/1.1/DTD/svg11.dtd"><svg t="1592039778146" class="icon" viewBox="0 0 1079 1024" version="1.1" xmlns="http://www.w3.org/2000/svg" p-id="3966" xmlns:xlink="http://www.w3.org/1999/xlink" width="210.7421875" height="200"><defs><style type="text/css"></style></defs><path d="M 552.713 451.942 h 12.672 v 12.672 h -12.672 Z" fill="#8a8a8a" p-id="3967"></path><path d="M 561.161 451.942 h 12.6891 v 12.672 h -12.6891 Z" fill="#8a8a8a" p-id="3968"></path><path d="M 569.617 451.942 h 12.7061 v 12.672 h -12.7061 Z M 530.338 451.942 h 12.6549 v 12.672 h -12.6549 Z" fill="#8a8a8a" p-id="3969"></path><path d="M 521.865 451.942 h 12.6891 v 12.672 h -12.6891 Z" fill="#8a8a8a" p-id="3970"></path><path d="M 513.399 451.942 h 12.6976 v 12.672 h -12.6976 Z M 587.008 636.578 h -11.4347 v -11.4347 h 11.4347 v 11.4347 Z m -7.71413 -3.72907 h 4.00213 v -3.97653 h -4.00213 v 3.97653 Z M 572.996 636.578 h -11.4261 v -11.4347 h 11.4261 v 11.4347 Z m -7.69707 -3.72907 h 3.97653 v -3.97653 h -3.97653 v 3.97653 Z M 558.993 636.578 h -11.4176 v -11.4347 h 11.4176 v 11.4347 Z m -7.69707 -3.72907 h 3.97653 v -3.97653 h -3.97653 v 3.97653 Z M 545.007 636.578 h -11.4347 v -11.4347 h 11.4347 v 11.4347 Z m -7.71413 -3.72907 h 3.98507 v -3.97653 h -3.98507 v 3.97653 Z M 531.004 636.578 h -11.4261 v -11.4347 h 11.4261 v 11.4347 Z m -7.7056 -3.72907 h 3.98507 v -3.97653 h -3.98507 v 3.97653 Z M 505.566 636.604 v -11.4603 h 11.4688 l -0.0512 11.4347 l -11.4176 0.0256 Z m 3.72053 -7.7312 v 4.00213 l 4.01067 -0.017067 l 0.008533 -3.98507 h -4.0192 Z M 598.537 691.507 h -14.5493 l 0.0256 -34.9696 h 14.5408 l -0.017067 34.9696 Z m -10.8373 -3.72053 h 7.10827 l 0.017066 -27.52 h -7.09973 l -0.0256 27.52 Z M 577.929 691.507 h -14.5493 v -34.9696 h 14.5493 v 34.9696 Z m -10.8373 -3.72053 h 7.10827 v -27.52 h -7.10827 V 687.787 Z" fill="#8a8a8a" p-id="3971"></path><path d="M 548.668 808.798 v -63.5307 h -5.23947 v -19.1232 l 3.9424 -2.10773 l -3.9424 -2.08213 v -39.7483 h 5.23947 V 665.856 h -5.23947 v -33.792 h 45.824 v -12.6635 l 5.30773 -1.60427 c 42.7947 -12.8 70.4427 -41.1307 70.4427 -72.192 c 0 -32.6912 -31.0528 -62.4384 -77.2437 -74.0181 l -5.632 -1.408 v -1.83467 h -7.87627 v -13.6107 h -28.2709 v -17.1861 h -2.56 v -56.2432 l 1.4592 -1.9712 c 25.1392 -33.9883 49.8347 -67.5755 74.5131 -101.163 c 25.9243 -35.2512 51.8571 -70.528 78.3445 -106.317 a 26.2827 26.2827 0 0 1 21.2992 -10.7093 c 47.9573 0.110933 95.8805 0.1792 143.821 0.238933 c 44.2539 0.0512 88.5077 0.110933 132.779 0.2048 c 3.5584 0 7.168 0.750933 10.4277 2.15893 l 8.5248 3.6864 l -465.92 641.365 Z m 12.3648 -78.4213 h 2.52587 v 32.5973 l 426.078 -586.522 c -42.2912 -0.085333 -84.5312 -0.136533 -126.771 -0.196267 c -47.9573 -0.059733 -95.8976 -0.119467 -143.829 -0.238933 c -3.72053 0 -7.1168 1.7152 -9.3184 4.6848 c -26.4875 35.7803 -52.4032 71.04 -78.3104 106.283 c -24.2347 32.9643 -48.4523 65.8944 -73.088 99.2256 v 36.4544 h 38.6987 v 36.0021 c 49.8176 14.3104 82.8757 48.7253 82.8757 86.9376 c 0 36.4288 -29.5509 69.2309 -75.7589 84.7701 v 31.6672 h -40.5675 v 35.0464 h -5.248 v 16.8704 c 2.67093 2.74773 4.20693 6.34027 4.20693 10.1376 a 14.3189 14.3189 0 0 1 -1.49333 6.28053 Z M 529.22 691.507 h -14.5579 v -34.9696 h 14.5579 v 34.9696 Z m -10.8373 -3.72053 h 7.10827 v -27.52 h -7.10827 V 687.787 Z M 508.595 691.507 h -14.5579 v -34.9696 h 14.5579 v 34.9696 Z m -10.8373 -3.72053 h 7.1168 v -27.52 h -7.1168 V 687.787 Z" fill="#8a8a8a" p-id="3972"></path><path d="M 543.94 808.422 L 78.1056 167.253 l 8.66133 -3.64373 c 3.24267 -1.34827 6.67307 -2.03947 10.2229 -2.03947 l 276.531 -0.443733 c 8.3712 0 16.3328 3.9936 21.2907 10.7008 l -0.4608 0.341333 c 4.7616 5.248 14.6773 18.7221 40.1152 53.2736 c 22.5877 30.6517 50.816 69.0347 73.5232 99.9168 l 39.7056 53.9648 l 1.46773 1.97973 v 56.2432 h -2.5856 v 17.1861 h -25.3355 v 13.6107 h -7.86773 v 1.24587 l -5.77707 1.3312 c -47.8635 11.0592 -80.0256 41.0795 -80.0256 74.6837 c 0 31.0613 27.6395 59.4005 70.4341 72.192 l 5.30773 1.60427 v 12.6635 h 45.8411 v 33.7835 h -5.23093 v 16.3499 h 5.23093 v 39.8848 l -3.97653 2.09067 l 3.9424 2.0992 l 0.034133 18.9952 h -5.23093 v 63.1552 Z m -440.747 -631.97 l 425.865 586.155 v -32.2304 h 2.47467 a 14.1909 14.1909 0 0 1 -1.4848 -6.272 c 0 -3.79733 1.5616 -7.40693 4.24107 -10.1461 V 697.088 h -5.23093 v -35.0464 h -40.6016 v -31.6672 c -46.1995 -15.5051 -75.7419 -48.3413 -75.7419 -84.7701 c 0 -39.2448 34.2357 -73.9755 85.7771 -87.7483 v -35.1915 h 35.7973 v -36.4544 c -5.34187 -7.2448 -20.0448 -27.2384 -38.3061 -52.0704 c -37.7344 -51.2853 -98.7477 -134.263 -110.822 -150.434 h -0.059733 l -2.2272 -3.00373 a 11.5115 11.5115 0 0 0 -9.344 -4.6848 l -270.336 0.4352 Z" fill="#8a8a8a" p-id="3973"></path><path d="M 553.276 412.211 l -14.3872 -31.2661 c 25.1477 -33.9968 49.8176 -67.5584 74.5131 -101.154 c 25.9157 -35.2597 51.8571 -70.5451 78.3531 -106.351 a 34.0907 34.0907 0 0 1 27.2811 -13.7131 c 47.9744 0.110933 95.9061 0.1792 143.846 0.238934 c 44.2453 0.059733 88.4907 0.119467 132.779 0.2048 c 4.608 0 14.1483 5.18827 18.3808 7.03147 l -16.8704 23.0656 a 3.80587 3.80587 0 0 0 -1.55307 -0.315733 c -44.2965 -0.1024 -88.5504 -0.1536 -132.779 -0.213333 c -47.9573 -0.059733 -95.8976 -0.128 -143.855 -0.238934 a 4.08747 4.08747 0 0 0 -3.31947 1.67253 c -26.4704 35.7717 -52.3861 71.0315 -78.2933 106.257 c -24.6869 33.6043 -58.9312 80.7595 -84.096 114.782 Z" fill="#8a8a8a" p-id="3974"></path><path d="M 539.281 412.211 c -25.1563 -34.0139 -59.2896 -81.1776 -84.0021 -114.79 c -25.8987 -35.2256 -51.8144 -70.4853 -78.3104 -106.266 a 4.05333 4.05333 0 0 0 -3.328 -1.664 c -47.9232 0.110933 -95.872 0.1792 -143.829 0.238933 c -44.2283 0.059733 -88.4565 0.119467 -132.736 0.213334 a 4.01067 4.01067 0 0 0 -1.60427 0.315733 l -17.3653 -22.9973 c 4.23253 -1.83467 14.2933 -7.0912 18.944 -7.0912 c 44.2453 -0.093867 88.4907 -0.1536 132.753 -0.2048 c 47.9232 -0.059733 95.8635 -0.128 143.804 -0.238934 c 10.752 0 20.9408 5.12853 27.3067 13.7045 c 26.5045 35.8144 52.4459 71.0997 78.3701 106.359 c 24.6869 33.5957 49.3653 67.1573 74.5131 101.154 l -14.5152 31.2661 Z M 96.9472 911.599 a 35.9253 35.9253 0 0 1 -35.8571 -35.8827 l 0.1024 -686.72 c 0 -2.05653 0.1792 -4.08747 0.520534 -6.07573 c 0.546133 -3.26827 8.51627 -11.2384 8.51627 -11.2384 l 0.657067 0.896 l 276.634 378.94 l -0.017067 266.803 c 0 1.92 0 4.5056 -0.324266 7.296 h 0.3072 a 35.6949 35.6949 0 0 1 -27.8357 34.9269 c -35.8059 8.25173 -71.6203 16.6485 -107.426 25.0709 c -35.1403 8.2432 -70.3061 16.5035 -105.489 24.6272 a 36.5141 36.5141 0 0 1 -9.78773 1.3568 Z m -2.31253 -686.925 c -0.0512 92.8853 -0.0512 351.104 -0.0512 566.519 v 84.5227 c 0 1.57867 1.50187 2.77333 3.15733 2.2528 l 1.01547 -0.247467 c 35.2939 -8.1408 70.5536 -16.4352 105.813 -24.7125 c 35.8485 -8.43093 71.68 -16.8448 107.563 -25.0965 a 2.38933 2.38933 0 0 0 1.85173 -2.28693 l 0.017067 -16.7509 c 0.034133 -44.4843 0.017067 -168.107 0.017066 -240.529 v -41.728 L 94.6347 224.674 Z M 981.623 915.362 c -35.1744 -8.12373 -70.3403 -16.3755 -105.481 -24.6272 c -35.8059 -8.41387 -71.6203 -16.8192 -107.426 -25.0709 a 35.6693 35.6693 0 0 1 -27.8357 -34.9184 h 0.3072 c -0.324267 -2.7904 -0.324267 -5.39307 -0.324267 -7.296 l -0.017067 -266.795 l 276.634 -378.94 l 0.657067 -0.904533 s 7.97013 7.97867 8.51627 11.2384 c 0.349867 1.98827 0.520533 4.0192 0.520533 6.07573 l 0.1024 686.72 a 35.9253 35.9253 0 0 1 -45.6533 34.5173 Z m -207.283 -383.625 v 41.7195 c 0 72.4395 -0.017067 196.053 0.017066 240.538 l 0.017067 16.7424 c 0 0.913067 0.631467 1.98827 1.85173 2.28693 c 35.8827 8.25173 71.7141 16.6741 107.563 25.1051 c 35.2683 8.2688 70.5195 16.5461 105.813 24.704 l 1.024 0.256 c 1.64693 0.512 3.1488 -0.682667 3.1488 -2.2528 v -84.5312 c 0 -215.415 0 -473.626 -0.0512 -566.511 l -219.383 301.943 Z M 555.358 617.796 a 4.0448 4.0448 0 0 1 -3.34507 -1.64693 c -0.981333 -1.31413 -1.1264 -3.0976 -0.443733 -5.3248 a 233.617 233.617 0 0 0 10.2059 -63.2747 c 0.494933 -24.0213 -2.96107 -47.5819 -9.9328 -68.1387 c -0.836267 -2.49173 -0.264533 -4.05333 0.375467 -4.92373 c 1.75787 -2.4576 5.99893 -1.7664 7.91893 1.42507 c 4.69333 7.91893 15.5136 30.8651 14.8139 72.7296 c -0.5376 35.1573 -9.81333 59.6651 -14.2421 66.0309 c -1.29707 1.91147 -3.4048 3.1232 -5.3504 3.1232 Z M 537.216 617.796 c -1.9456 0 -4.05333 -1.22027 -5.3504 -3.1232 c -4.4288 -6.36587 -13.6875 -30.8736 -14.2507 -66.0309 c -0.6912 -41.8987 10.1376 -64.8192 14.8224 -72.7211 c 1.8944 -3.19147 6.15253 -3.89973 7.91893 -1.4336 c 0.64 0.8704 1.21173 2.44053 0.392533 4.90667 c -7.02293 20.6677 -10.4533 44.2453 -9.9328 68.1643 a 234.155 234.155 0 0 0 10.1632 63.2576 c 0.699733 2.24427 0.554667 4.02773 -0.426667 5.34187 a 4.03627 4.03627 0 0 1 -3.33653 1.6384 Z M 515.507 618.189 c -0.6912 0 -1.45067 -0.2048 -2.7136 -0.7168 c -9.8816 -4.02773 -45.7899 -33.9029 -42.9141 -78.6005 c 2.8928 -45.1157 35.968 -66.3808 40.1408 -66.3808 h 1.85173 l 0.878933 1.792 c 0.3584 0.853333 0.477867 2.176 -0.981333 3.62667 l -0.810667 0.810667 c -18.0821 17.6896 -27.6139 39.1595 -28.3904 63.8293 c -1.04107 34.4149 27.8699 63.5392 33.6725 69.0261 c 1.36533 1.29707 2.88427 2.75627 2.0736 4.77867 l -0.699734 1.7664 l -2.10773 0.068267 Z M 577.067 618.189 h -1.8944 l -0.913067 -1.8432 c -0.802133 -2.01387 0.725333 -3.47307 2.09067 -4.77867 c 5.8112 -5.48693 34.7221 -34.6368 33.664 -69.0261 c -0.768 -24.6784 -10.3168 -46.1397 -28.3989 -63.8293 l -0.802133 -0.810667 c -1.4592 -1.44213 -1.33973 -2.77333 -0.981333 -3.62667 l 0.699733 -1.72373 l 2.0224 -0.068267 c 4.1728 0 37.248 21.2736 40.1323 66.3808 c 2.88427 44.7061 -33.024 74.5728 -42.9312 78.6005 a 7.08267 7.08267 0 0 1 -2.688 0.725333 Z" fill="#8a8a8a" p-id="3975"></path></svg>